<?xml version="1.0" encoding="UTF-8" standalone="no"?>
<svg
   viewBox="0 0 50 50"
   width="50px"
   height="50px"
   version="1.1"
   id="svg4"
   sodipodi:docname="search.svg"
   inkscape:version="1.2.2 (b0a8486541, 2022-12-01)"
   xmlns:inkscape="http://www.inkscape.org/namespaces/inkscape"
   xmlns:sodipodi="http://sodipodi.sourceforge.net/DTD/sodipodi-0.dtd"
   xmlns="http://www.w3.org/2000/svg"
   xmlns:svg="http://www.w3.org/2000/svg">
  <defs
     id="defs8" />
  <sodipodi:namedview
     id="namedview6"
     pagecolor="#ffffff"
     bordercolor="#666666"
     borderopacity="1.0"
     inkscape:showpageshadow="2"
     inkscape:pageopacity="0.0"
     inkscape:pagecheckerboard="0"
     inkscape:deskcolor="#d1d1d1"
     showgrid="false"
     inkscape:zoom="19.9"
     inkscape:cx="12.562814"
     inkscape:cy="25.050251"
     inkscape:window-width="2560"
     inkscape:window-height="1359"
     inkscape:window-x="1920"
     inkscape:window-y="0"
     inkscape:window-maximized="1"
     inkscape:current-layer="svg4" />
  <path
     d="M 21 3 C 11.6 3 4 10.6 4 20 C 4 29.4 11.6 37 21 37 C 24.354553 37 27.47104 36.01984 30.103516 34.347656 L 42.378906 46.621094 L 46.621094 42.378906 L 34.523438 30.279297 C 36.695733 27.423994 38 23.870646 38 20 C 38 10.6 30.4 3 21 3 z M 21 7 C 28.2 7 34 12.8 34 20 C 34 27.2 28.2 33 21 33 C 13.8 33 8 27.2 8 20 C 8 12.8 13.8 7 21 7 z"
     id="path2"
     style="fill:#262626;fill-opacity:1" />
</svg>
